<mxfile host="app.diagrams.net" modified="2024-05-06T20:36:54.299Z" agent="Mozilla/5.0 (Windows NT 10.0; Win64; x64) AppleWebKit/537.36 (KHTML, like Gecko) Chrome/124.0.0.0 Safari/537.36" version="24.3.1" etag="FfGMZRB6JzrAb6rFNPj_" type="github">
  <diagram name="PaginÄƒ-1" id="cJ2MzRvJhX2OX5R7lfvb">
    <mxGraphModel>
      <root>
        <mxCell id="0" />
        <mxCell id="1" parent="0" />
      </root>
    </mxGraphModel>
  </diagram>
</mxfile>
